<svg xmlns="http://www.w3.org/2000/svg" xmlns:xlink="http://www.w3.org/1999/xlink" width="48" height="48" viewBox="0 0 48 48">
  <defs>
    <filter id="Ellipse_83" x="0" y="0" width="48" height="48" filterUnits="userSpaceOnUse">
      <feOffset dy="3" input="SourceAlpha"/>
      <feGaussianBlur stdDeviation="3" result="blur"/>
      <feFlood flood-opacity="0.161"/>
      <feComposite operator="in" in2="blur"/>
      <feComposite in="SourceGraphic"/>
    </filter>
  </defs>
  <g id="account-setting" transform="translate(-198 -248)">
    <g transform="matrix(1, 0, 0, 1, 198, 248)" filter="url(#Ellipse_83)">
      <circle id="Ellipse_83-2" data-name="Ellipse 83" cx="15" cy="15" r="15" transform="translate(9 6)" fill="#fff"/>
    </g>
    <path id="Icon_open-person" data-name="Icon open-person" d="M7.622,0c-2.1,0-3.811,2.134-3.811,4.764S5.526,9.527,7.622,9.527s3.811-2.134,3.811-4.764S9.718,0,7.622,0ZM3.639,9.527A3.815,3.815,0,0,0,0,13.338v1.905H15.243V13.338A3.8,3.8,0,0,0,11.6,9.527a5.351,5.351,0,0,1-3.982,1.905A5.351,5.351,0,0,1,3.639,9.527Z" transform="translate(214.378 260.878)" opacity="0.33"/>
  </g>
</svg>
