<svg xmlns="http://www.w3.org/2000/svg" width="16.924" height="15.453" viewBox="0 0 16.924 15.453">
  <path id="Icon_material-add-a-photo" data-name="Icon material-add-a-photo" d="M2.208,3.708V1.5H3.679V3.708H5.887V5.179H3.679V7.387H2.208V5.179H0V3.708ZM4.415,8.123V5.915H6.623V3.708h5.151L13.12,5.179h2.333a1.476,1.476,0,0,1,1.472,1.472v8.83a1.476,1.476,0,0,1-1.472,1.472H3.679a1.476,1.476,0,0,1-1.472-1.472V8.123Zm5.151,6.623a3.679,3.679,0,1,0-3.679-3.679A3.681,3.681,0,0,0,9.566,14.745ZM7.211,11.066A2.355,2.355,0,1,0,9.566,8.711,2.352,2.352,0,0,0,7.211,11.066Z" transform="translate(0 -1.5)"/>
</svg>
