<svg xmlns="http://www.w3.org/2000/svg" width="826" height="826" viewBox="0 0 826 826">
  <g id="Group_445" data-name="Group 445" transform="translate(-733 -126)">
    <circle id="Ellipse_80" data-name="Ellipse 80" cx="413" cy="413" r="413" transform="translate(733 126)" fill="#f8f8f8"/>
    <text id="FULLSTACK_DEVELOPMENT_PROJECT" data-name="FULLSTACK DEVELOPMENT PROJECT" transform="translate(1146 664)" fill="#dbdbdb" font-size="31" font-family="SegoeUI, Segoe UI" letter-spacing="0.07em"><tspan x="-280.545" y="0">FULLSTACK DEVELOPMENT PROJECT</tspan></text>
    <g id="online-shopping" transform="translate(988.677 299.13)" opacity="0.32">
      <path id="Path_409" data-name="Path 409" d="M296.8,50.661H214.154c-.087,0-.172.008-.257.013a84.52,84.52,0,0,0-9.753-7.884,4.595,4.595,0,0,0-5.229,7.557,74.685,74.685,0,1,1-18.654-9.371,4.594,4.594,0,0,0,2.936-8.707A84.359,84.359,0,1,0,222.322,59.85H296.8a7.666,7.666,0,0,1,7.657,7.657v144.6h-36.34a4.594,4.594,0,0,0,0,9.189h36.34v24.129a7.666,7.666,0,0,1-7.657,7.657H16.846a7.666,7.666,0,0,1-7.657-7.657V221.3h235.79a4.594,4.594,0,0,0,0-9.189H9.189V67.507a7.666,7.666,0,0,1,7.657-7.657H71.635a4.594,4.594,0,0,0,0-9.189H16.846A16.865,16.865,0,0,0,0,67.507V245.429a16.865,16.865,0,0,0,16.846,16.846H117.554v35.906h-13.87a4.594,4.594,0,1,0,0,9.189H208.84a4.594,4.594,0,1,0,0-9.189h-13.87V262.275H296.8a16.865,16.865,0,0,0,16.846-16.846V67.507A16.865,16.865,0,0,0,296.8,50.661ZM185.781,298.182H126.743V262.275h59.038Z" fill="#aeaeae"/>
      <path id="Path_410" data-name="Path 410" d="M188.792,99.82a11.014,11.014,0,0,0-10.815-8.965h-4.913a4.594,4.594,0,0,0,0,9.189h4.913a1.818,1.818,0,0,1,1.785,1.481l13.6,72.019a4.6,4.6,0,0,0,4.515,3.742h3.1a8.574,8.574,0,1,0,12.77,0h18.9a8.574,8.574,0,1,0,12.77,0h4.134a4.594,4.594,0,1,0,0-9.189H201.681l-1.875-9.928h51.346a4.594,4.594,0,0,0,4.514-3.739l8.155-43.02c0-.028.01-.055.015-.083a5.524,5.524,0,0,0-5.445-6.453H189.746Zm6.852,36.294h12.535l.94,12.864H198.074Zm32.809,0-.94,12.864h-9.18l-.94-12.864Zm-11.732-9.189-.94-12.864h14.284l-.94,12.864Zm20.006,22.053.94-12.864h12.119l-2.439,12.864Zm14.8-22.053H238.34l.94-12.864h14.688Zm-44.962-12.864.94,12.864h-13.6l-2.429-12.864Z" transform="translate(-65.267 -24.401)" fill="#aeaeae"/>
      <path id="Path_411" data-name="Path 411" d="M45.945,269.29H73.121a4.594,4.594,0,0,0,0-9.189H45.945a4.594,4.594,0,0,0,0,9.189Z" transform="translate(-16.02 -89.968)" fill="#aeaeae"/>
      <path id="Path_412" data-name="Path 412" d="M45.945,303.119H96.652a4.594,4.594,0,1,0,0-9.189H45.945a4.594,4.594,0,1,0,0,9.189Z" transform="translate(-16.02 -103.074)" fill="#aeaeae"/>
      <path id="Path_413" data-name="Path 413" d="M431.844,108.37a4.594,4.594,0,0,0-4.594,4.594v11.5h-11.5a4.594,4.594,0,0,0,0,9.189h11.5v11.5a4.594,4.594,0,1,0,9.189,0v-11.5h11.5a4.594,4.594,0,0,0,0-9.189h-11.5v-11.5A4.6,4.6,0,0,0,431.844,108.37Z" transform="translate(-159.286 -31.186)" fill="#aeaeae"/>
    </g>
  </g>
</svg>
