<svg xmlns="http://www.w3.org/2000/svg" width="16.349" height="15.101" viewBox="0 0 16.349 15.101">
  <g id="Icon_ionic-ios-cart" data-name="Icon ionic-ios-cart" transform="translate(-3.382 -4.493)">
    <path id="Path_418" data-name="Path 418" d="M11.45,29.069a.944.944,0,1,1-.944-.944A.944.944,0,0,1,11.45,29.069Z" transform="translate(-2.725 -10.418)" fill="#fff"/>
    <path id="Path_419" data-name="Path 419" d="M27.235,29.069a.944.944,0,1,1-.944-.944A.944.944,0,0,1,27.235,29.069Z" transform="translate(-9.684 -10.418)" fill="#fff"/>
    <path id="Path_420" data-name="Path 420" d="M19.725,7.178a.231.231,0,0,0-.2-.165L6.716,5.775a.394.394,0,0,1-.295-.185,4,4,0,0,0-.48-.731c-.3-.37-.873-.358-1.919-.366a.573.573,0,0,0-.641.554A.562.562,0,0,0,4,5.6a5.224,5.224,0,0,1,1.022.075c.185.055.334.358.389.621a.014.014,0,0,0,0,.012c.008.047.079.4.079.4l1.573,8.319a3.057,3.057,0,0,0,.57,1.4,1.569,1.569,0,0,0,1.293.637h9.3a.559.559,0,0,0,.566-.527.548.548,0,0,0-.55-.574H8.918a.457.457,0,0,1-.326-.11,1.764,1.764,0,0,1-.452-1.022l-.169-.932a.022.022,0,0,1,.016-.024L18.9,12.038a.23.23,0,0,0,.193-.2l.629-4.553A.224.224,0,0,0,19.725,7.178Z" transform="translate(0 0)" fill="#fff"/>
  </g>
</svg>
