<svg xmlns="http://www.w3.org/2000/svg" width="16.914" height="18.775" viewBox="0 0 16.914 18.775">
  <g id="Icon_feather-package" data-name="Icon feather-package" transform="translate(-4 -2.479)">
    <path id="Path_414" data-name="Path 414" d="M19.207,10.9,11.25,6.315" transform="translate(-2.771 -1.36)" fill="none" stroke="#fff" stroke-linecap="round" stroke-linejoin="round" stroke-width="1"/>
    <path id="Path_415" data-name="Path 415" d="M20.414,15.379V8.306a1.768,1.768,0,0,0-.884-1.53L13.341,3.24a1.768,1.768,0,0,0-1.768,0L5.384,6.776A1.768,1.768,0,0,0,4.5,8.306v7.073a1.768,1.768,0,0,0,.884,1.53l6.189,3.536a1.768,1.768,0,0,0,1.768,0l6.189-3.536A1.768,1.768,0,0,0,20.414,15.379Z" transform="translate(0 0)" fill="none" stroke="#fff" stroke-linecap="round" stroke-linejoin="round" stroke-width="1"/>
    <path id="Path_416" data-name="Path 416" d="M4.905,10.44,12.623,14.9l7.718-4.465" transform="translate(-0.166 -3.054)" fill="none" stroke="#fff" stroke-linecap="round" stroke-linejoin="round" stroke-width="1"/>
    <path id="Path_417" data-name="Path 417" d="M18,26.912V18" transform="translate(-5.543 -6.158)" fill="none" stroke="#fff" stroke-linecap="round" stroke-linejoin="round" stroke-width="1"/>
  </g>
</svg>
