<svg xmlns="http://www.w3.org/2000/svg" width="61.358" height="68.289" viewBox="0 0 61.358 68.289">
  <g id="package-white" transform="translate(1 1.079)">
    <path id="Path_414" data-name="Path 414" d="M40.929,23.43,11.25,6.315" transform="translate(3.589 0.966)" fill="none" stroke="#fff" stroke-linecap="round" stroke-linejoin="round" stroke-width="2"/>
    <path id="Path_415" data-name="Path 415" d="M63.858,49.163V22.782a6.6,6.6,0,0,0-3.3-5.7L37.476,3.887a6.6,6.6,0,0,0-6.6,0L7.8,17.077a6.6,6.6,0,0,0-3.3,5.7V49.163a6.6,6.6,0,0,0,3.3,5.7L30.881,68.059a6.6,6.6,0,0,0,6.6,0L60.56,54.868A6.6,6.6,0,0,0,63.858,49.163Z" transform="translate(-4.5 -3.003)" fill="none" stroke="#fff" stroke-linecap="round" stroke-linejoin="round" stroke-width="2"/>
    <path id="Path_416" data-name="Path 416" d="M4.905,10.44,33.693,27.093,62.482,10.44" transform="translate(-4.015 5.91)" fill="none" stroke="#fff" stroke-linecap="round" stroke-linejoin="round" stroke-width="2"/>
    <path id="Path_417" data-name="Path 417" d="M18,51.24V18" transform="translate(11.679 14.97)" fill="none" stroke="#fff" stroke-linecap="round" stroke-linejoin="round" stroke-width="2"/>
  </g>
</svg>
