<svg xmlns="http://www.w3.org/2000/svg" width="157.453" height="157.454" viewBox="0 0 157.453 157.454">
  <g id="Group_442" data-name="Group 442" transform="translate(-760.274 -416.773)">
    <g id="coupon" transform="translate(760.273 416.773)">
      <path id="XMLID_1468_" d="M154.48,23.93l2.073-2.073a3.075,3.075,0,0,0-4.349-4.349l-2.073,2.073-2.072-2.072a3.076,3.076,0,0,0-2.174-.9H142.5L126.795.9A3.076,3.076,0,0,0,124.62,0H11.076A11.088,11.088,0,0,0,0,11.075v57.63A11.088,11.088,0,0,0,11.076,79.78H37.867L19.851,97.8a11.075,11.075,0,0,0,0,15.663L60.6,154.21a11.075,11.075,0,0,0,15.663,0l30.521-30.52a3.075,3.075,0,1,0-4.349-4.349l-30.521,30.52a4.924,4.924,0,0,1-6.964,0L24.2,109.11a4.925,4.925,0,0,1,0-6.964l79.387-79.387h41.024l1.171,1.171-7.111,7.111a9.23,9.23,0,1,0,4.349,4.349l7.111-7.111,1.171,1.171V70.474l-29.3,29.3a3.075,3.075,0,0,0,4.349,4.349l30.2-30.2a3.076,3.076,0,0,0,.9-2.174V28.176a3.076,3.076,0,0,0-.9-2.174ZM55.226,55.18A3.076,3.076,0,1,1,58.3,52.1,3.079,3.079,0,0,1,55.226,55.18Zm47.088-38.572a3.076,3.076,0,0,0-2.174.9L64.376,53.272a9.246,9.246,0,1,0-7.982,7.982L44.018,73.629H11.076A4.93,4.93,0,0,1,6.151,68.7V11.075A4.93,4.93,0,0,1,11.076,6.15h112.27L133.8,16.608ZM134.7,42.44a3.075,3.075,0,1,1,1.866-5.514,2.769,2.769,0,0,0,.573.573A3.07,3.07,0,0,1,134.7,42.44Z" fill="#527022"/>
      <path id="XMLID_1527_" d="M286.5,242.813a3.076,3.076,0,0,0,2.174-.9l6.958-6.959a3.075,3.075,0,0,0-4.349-4.349l-4.784,4.784L271.28,220.167a3.075,3.075,0,0,0-4.349,4.349l17.4,17.4A3.077,3.077,0,0,0,286.5,242.813Z" transform="translate(-184.219 -151.837)" fill="#527022"/>
      <path id="XMLID_1528_" d="M345.676,166.853a3.076,3.076,0,0,0-4.349,0l-3.914,3.914-4.349-4.349,3.914-3.914a3.075,3.075,0,1,0-4.349-4.349l-3.914,3.914-4.349-4.349,3.914-3.914a3.075,3.075,0,0,0-4.349-4.349l-6.089,6.089a3.075,3.075,0,0,0,0,4.349l17.4,17.4a3.075,3.075,0,0,0,4.349,0l6.089-6.089A3.075,3.075,0,0,0,345.676,166.853Z" transform="translate(-219.474 -102.872)" fill="#527022"/>
      <path id="XMLID_1531_" d="M244.091,283.493a3.075,3.075,0,1,0,2.792-5.48l-23.05-11.742a3.075,3.075,0,0,0-4.136,4.136l11.742,23.05a3.075,3.075,0,0,0,5.48-2.792l-.943-1.851,6.263-6.263Zm-11.05-.442-3.568-7.005,7.005,3.569Z" transform="translate(-151.902 -184.154)" fill="#527022"/>
      <path id="XMLID_1532_" d="M168.451,339.6a3.075,3.075,0,1,0,4.349,4.349l4.349-4.349a9.225,9.225,0,0,0-12.5-13.553,3.062,3.062,0,0,0-.324.278l-.228.227a3.075,3.075,0,0,1-4.349-4.349l4.349-4.349a3.075,3.075,0,1,0-4.349-4.349l-4.349,4.349a9.226,9.226,0,0,0,13.04,13.054l.007-.006a3.075,3.075,0,1,1,4.349,4.349Z" transform="translate(-105.745 -216.471)" fill="#527022"/>
      <path id="XMLID_1533_" d="M116.344,63.661a3.075,3.075,0,0,0-4.19,1.166L92.319,99.963a3.075,3.075,0,1,0,5.356,3.024L117.51,67.851A3.075,3.075,0,0,0,116.344,63.661Z" transform="translate(-63.653 -43.809)" fill="#527022"/>
      <path id="XMLID_1536_" d="M83.622,69.221A9.227,9.227,0,1,0,74.4,78.447,9.237,9.237,0,0,0,83.622,69.221Zm-12.3,0A3.076,3.076,0,1,1,74.4,72.3,3.079,3.079,0,0,1,71.319,69.221Z" transform="translate(-45.127 -41.544)" fill="#527022"/>
      <path id="XMLID_1537_" d="M365.066,353.319a3.077,3.077,0,1,0,2.174.9A3.092,3.092,0,0,0,365.066,353.319Z" transform="translate(-250.67 -244.665)" fill="#527022"/>
    </g>
  </g>
</svg>
