<svg xmlns="http://www.w3.org/2000/svg" width="213.696" height="148.64" viewBox="0 0 213.696 148.64">
  <g id="Group_443" data-name="Group 443" transform="translate(-1272.056 -424.43)">
    <g id="shopping-bag" transform="translate(1257.36 424.43)">
      <g id="Group_433" data-name="Group 433" transform="translate(14.696)">
        <path id="Path_439" data-name="Path 439" d="M118.354,111.3,109.826,31.84a2.6,2.6,0,0,0-2.559-2.274H91.49V24.733a24.733,24.733,0,1,0-49.465,0v4.833H25.82a2.6,2.6,0,0,0-2.559,2.274L14.733,111.3a2.547,2.547,0,0,0,.569,1.99,2.292,2.292,0,0,0,1.848.853h98.789a2.292,2.292,0,0,0,1.848-.853A2.547,2.547,0,0,0,118.354,111.3ZM88.931,43.922A2.274,2.274,0,1,1,86.657,46.2,2.245,2.245,0,0,1,88.931,43.922ZM47.141,24.733a19.616,19.616,0,1,1,39.231,0v4.833H47.141ZM44.583,43.922A2.274,2.274,0,1,1,42.308,46.2,2.245,2.245,0,0,1,44.583,43.922ZM20.134,108.881l7.96-74.34h13.93v4.691a7.249,7.249,0,1,0,4.833,0V34.541H86.088v4.691a7.249,7.249,0,1,0,4.833,0V34.541h14.5l7.96,74.34Z" transform="translate(-14.696 0)" fill="#527022"/>
      </g>
    </g>
    <g id="shopping-bag-2" data-name="shopping-bag" transform="translate(1367.36 458.93)">
      <g id="Group_433-2" data-name="Group 433" transform="translate(14.696)">
        <path id="Path_439-2" data-name="Path 439" d="M118.354,111.3,109.826,31.84a2.6,2.6,0,0,0-2.559-2.274H91.49V24.733a24.733,24.733,0,1,0-49.465,0v4.833H25.82a2.6,2.6,0,0,0-2.559,2.274L14.733,111.3a2.547,2.547,0,0,0,.569,1.99,2.292,2.292,0,0,0,1.848.853h98.789a2.292,2.292,0,0,0,1.848-.853A2.547,2.547,0,0,0,118.354,111.3ZM88.931,43.922A2.274,2.274,0,1,1,86.657,46.2,2.245,2.245,0,0,1,88.931,43.922ZM47.141,24.733a19.616,19.616,0,1,1,39.231,0v4.833H47.141ZM44.583,43.922A2.274,2.274,0,1,1,42.308,46.2,2.245,2.245,0,0,1,44.583,43.922ZM20.134,108.881l7.96-74.34h13.93v4.691a7.249,7.249,0,1,0,4.833,0V34.541H86.088v4.691a7.249,7.249,0,1,0,4.833,0V34.541h14.5l7.96,74.34Z" transform="translate(-14.696 0)" fill="#527022"/>
      </g>
    </g>
  </g>
</svg>
