<svg xmlns="http://www.w3.org/2000/svg" width="12" height="9.6" viewBox="0 0 12 9.6">
  <path id="Icon_awesome-truck" data-name="Icon awesome-truck" d="M11.7,6.6h-.3V4.573a.9.9,0,0,0-.264-.636L9.263,2.064A.9.9,0,0,0,8.627,1.8H7.8V.9A.9.9,0,0,0,6.9,0H.9A.9.9,0,0,0,0,.9v6a.9.9,0,0,0,.9.9h.3a1.8,1.8,0,1,0,3.6,0H7.2a1.8,1.8,0,1,0,3.6,0h.9a.3.3,0,0,0,.3-.3V6.9A.3.3,0,0,0,11.7,6.6ZM3,8.7a.9.9,0,1,1,.9-.9A.9.9,0,0,1,3,8.7Zm6,0a.9.9,0,1,1,.9-.9A.9.9,0,0,1,9,8.7Zm1.5-3.9H7.8V2.7h.827L10.5,4.573Z" fill="#fff"/>
</svg>
