<svg xmlns="http://www.w3.org/2000/svg" width="81.111" height="68.318" viewBox="0 0 81.111 68.318">
  <path id="truck-white" d="M81.465,40.417l-.354-7.88a6.4,6.4,0,0,0-1.881-4.522L65.9,14.688a6.4,6.4,0,0,0-4.522-1.881H55.5V3.133C55.5-.4,52.629,0,49.093,0H6.4C2.868,0,.354-.4.354,3.133V52.216C.354,55.751,2.868,55.5,6.4,55.5H8.538a12.807,12.807,0,0,0,25.614,0H51.228a12.807,12.807,0,0,0,25.614,0h4.269ZM21.345,61.9a6.4,6.4,0,1,1,6.4-6.4A6.405,6.405,0,0,1,21.345,61.9Zm42.69,0a6.4,6.4,0,1,1,6.4-6.4A6.405,6.405,0,0,1,64.035,61.9ZM74.707,34.152H55.5V19.21H61.38L74.707,32.538Z" transform="translate(-0.354 0.014)" fill="#fff" opacity="0.94"/>
</svg>
